<?xml version="1.0" encoding="utf-8"?>
<!-- Generator: Adobe Illustrator 27.5.0, SVG Export Plug-In . SVG Version: 6.00 Build 0)  -->
<svg version="1.1" id="Capa_1" xmlns="http://www.w3.org/2000/svg" xmlns:xlink="http://www.w3.org/1999/xlink" x="0px" y="0px"
	 viewBox="0 0 1817 2478" style="enable-background:new 0 0 1817 2478;" xml:space="preserve">
<path style="fill:#F7AA48;" d="M1036.21,2083.61c-20.716-3.065-42.258-5.464-64.404-7.21v-18.859
	c0-11.299-9.245-20.539-20.539-20.539h-30.586v-91.127c27.948-22.968,57.67-43.912,83.313-69.528
	c67.605-67.527,108.381-160.804,111.458-256.336c3.141-97.474-32.846-193.787-97.589-266.407
	c-29.18-32.731-62.925-60.487-97.182-87.676v-207.834c125.477-20.709,194.376-148.187,174.752-268.064h25.064
	c12.42,0,22.575-10.161,22.575-22.576v-24.618c0-12.414-10.155-22.576-22.575-22.576H1073.1
	c19.099-23.959,31.951-53.089,36.004-84.873c0.909-7.105,1.371-14.325,1.371-21.656V280.97c0-90.043-70.362-164.459-158.814-170.981
	c-4.175-0.304-8.387-0.462-12.63-0.462h-99.837c-94.308,0-171.464,77.157-171.464,171.443v18.795h-0.002v53.576h0.002v40.44h-0.002
	v53.572h0.002v40.445h-0.002v53.572h0.002v40.445h-0.002v31.918c0,2.857,0.129,5.683,0.268,8.506
	c0.217,4.42,0.545,8.813,1.099,13.148c4.049,31.791,16.905,60.918,36.005,84.873h-35.93c-12.417,0-22.576,10.162-22.576,22.576
	v24.618c0,12.415,10.158,22.576,22.576,22.576h9.341c-1.836,51.288,4.545,103.21,25.804,149.447
	c-7.639,46.232-5.986,93.119,12.356,139.344c28.03,70.644,82.991,122.079,140.852,169.288v720.211
	c-7.16,9.135-13.145,18.841-17.195,29.363c-4.934,12.818-6.533,26.038-5.917,39.319h-7.474c-11.296,0-20.539,9.24-20.539,20.539
	v18.829c-190.345,15.004-333.702,80.767-333.702,159.635c0,89.926,186.438,162.836,416.403,162.836
	c31.769,0,62.697-1.388,92.424-4.04c185.503-16.431,323.982-81.296,323.982-158.796
	C1305.505,2166.31,1193.589,2106.85,1036.21,2083.61z M920.681,940.24h0.669c38.811,0,70.561-31.749,70.561-70.556V790.03h77.332
	c18.991,106.106-38.613,222.164-148.562,242.214V940.24z M920.681,1298.71c0.303,0.247,0.613,0.492,0.916,0.738
	c91.02,73.959,160.322,165.573,167.699,286.715c7.027,115.233-44.179,224.15-131.896,297.725
	c-11.003,9.232-23.727,18.468-36.718,28.076V1298.71z M714.75,893.67c-9.341-33.373-11.877-68.595-10.565-103.639h49.786
	C739.046,823.511,724.845,858.261,714.75,893.67z M857.523,1215.116c-24.291-20.507-47.537-42.144-68.169-66.621
	c-41.401-49.104-66.548-107.119-63.711-171.983c1.346,1.902,2.612,3.84,4.026,5.712c31.429,41.626,77.388,68.789,127.855,76.478
	V1215.116z M857.523,1032.724c-47.414-8.315-89.132-36.275-115.788-77.906c-4.155-6.488-7.846-13.143-11.22-19.905
	c9.412-50.282,30.258-98.505,51.438-144.882h4.333v79.654c0,38.807,31.755,70.556,70.562,70.556h0.675V1032.724z"/>
<path style="fill:#F28E22;" d="M951.66,109.988c35.204,59.172,62.705,123.111,79.762,189.776h-58.626
	c-11.295,0-20.537,9.247-20.537,20.538v12.492c0,11.301,9.242,20.549,20.537,20.549h69.953c0.152,0.887,0.304,1.775,0.441,2.668
	c2.037,12.529,3.696,25.122,4.93,37.772h-75.324c-11.295,0-20.537,9.242-20.537,20.538v12.493c0,11.301,9.242,20.538,20.537,20.538
	h78.112c0.09,13.491-0.32,26.976-1.249,40.445h-76.863c-11.295,0-20.537,9.247-20.537,20.543v12.493
	c0,11.301,9.242,20.538,20.537,20.538h70.53c-2.311,13.543-5.267,27.16-9.153,40.445h-61.377c-11.295,0-20.537,9.242-20.537,20.538
	v12.498c0,11.291,9.242,20.538,20.537,20.538h38.492c-6.554,10.796-14.257,20.842-23.331,29.843
	c-15.675,15.565-34.779,27.254-54.524,37.148c-13.558,6.788-27.519,12.742-41.774,17.882H1073.1
	c19.099-23.959,31.951-53.089,36.004-84.873c0.909-7.105,1.371-14.325,1.371-21.656V280.97
	C1110.474,190.926,1040.113,116.51,951.66,109.988z"/>
<path style="fill:#DA5214;" d="M1120.498,720.261H669.17c-12.417,0-22.576,10.162-22.576,22.576v24.618
	c0,12.415,10.158,22.576,22.576,22.576h117.116v79.654c0,38.807,31.755,70.556,70.562,70.556h0.675v1096.761h-30.586
	c-11.296,0-20.539,9.24-20.539,20.539v124.341c0,1.986,0.29,3.92,0.822,5.735c2.498,8.523,10.406,14.804,19.717,14.804h124.33
	c11.294,0,20.539-9.239,20.539-20.539v-124.341c0-11.299-9.245-20.539-20.539-20.539h-30.586V940.24h0.669
	c38.811,0,70.561-31.749,70.561-70.556V790.03h128.586c12.42,0,22.575-10.161,22.575-22.576v-24.618
	C1143.073,730.423,1132.918,720.261,1120.498,720.261z"/>
<path style="fill:#0B1927;" d="M753.971,790.03c-14.925,33.481-29.126,68.231-39.221,103.639
	c3.956,14.135,9.129,27.935,15.766,41.243c9.412-50.282,30.258-98.505,51.438-144.882H753.971z"/>
<path style="fill:#0B1927;" d="M921.597,1299.448c91.02,73.959,160.322,165.573,167.699,286.715
	c7.027,115.233-44.179,224.15-131.896,297.725c-11.003,9.232-23.727,18.468-36.718,28.076v33.911
	c27.948-22.968,57.67-43.912,83.313-69.528c67.605-67.527,108.381-160.804,111.458-256.336
	c3.141-97.474-32.846-193.787-97.589-266.407c-29.18-32.731-62.925-60.487-97.182-87.676v32.782
	C920.984,1298.957,921.294,1299.202,921.597,1299.448z"/>
<path style="fill:#0B1927;" d="M789.354,1148.495c-41.401-49.104-66.548-107.119-63.711-171.983
	c-8.354-11.817-15.427-24.199-21.328-37.035c-7.639,46.232-5.986,93.119,12.356,139.344
	c28.03,70.644,82.991,122.079,140.852,169.288v-32.993C833.232,1194.609,809.986,1172.972,789.354,1148.495z"/>
<path style="fill:#0B1927;" d="M857.523,1968.32c-7.16,9.135-13.145,18.841-17.195,29.363c-4.934,12.818-6.533,26.038-5.917,39.319
	h23.112V1968.32z"/>
<path style="fill:#FED178;" d="M729.668,982.224c31.429,41.626,77.388,68.789,127.855,76.478v-25.978
	c-47.414-8.315-89.132-36.275-115.788-77.906c-4.155-6.488-7.846-13.143-11.22-19.905c-6.637-13.308-11.81-27.107-15.766-41.243
	c-9.341-33.373-11.877-68.595-10.565-103.639h-25.674c-1.836,51.288,4.545,103.21,25.804,149.447
	c5.901,12.836,12.973,25.218,21.328,37.035C726.988,978.414,728.255,980.352,729.668,982.224z"/>
<path style="fill:#FED178;" d="M920.681,1032.245v25.85c125.477-20.709,194.376-148.187,174.752-268.064h-26.19
	C1088.235,896.136,1030.63,1012.195,920.681,1032.245z"/>
<path style="fill:#FED178;" d="M786.287,790.03v79.654c0,38.807,31.755,70.556,70.562,70.556h64.502
	c38.811,0,70.561-31.749,70.561-70.556V790.03H786.287z"/>
<path style="fill:#E86B10;" d="M829.881,332.797v-12.494c0-11.293-9.242-20.538-20.539-20.538H667.728v53.576h141.614
	C820.639,353.341,829.881,344.096,829.881,332.797z"/>
<path style="fill:#E86B10;" d="M829.881,426.814V414.32c0-11.293-9.242-20.539-20.539-20.539H667.728v53.572h141.614
	C820.639,447.353,829.881,438.113,829.881,426.814z"/>
<path style="fill:#E86B10;" d="M829.881,520.831v-12.494c0-11.293-9.242-20.539-20.539-20.539H667.728v53.572h141.614
	C820.639,541.37,829.881,532.13,829.881,520.831z"/>
<path style="fill:#E86B10;" d="M809.342,635.387c11.296,0,20.539-9.246,20.539-20.539v-12.494c0-11.299-9.242-20.539-20.539-20.539
	H667.728v31.918c0,2.857,0.129,5.683,0.268,8.506c0.218,4.419,0.547,8.811,1.101,13.147H809.342z"/>
<path style="fill:#FED178;" d="M831.941,139.261c-63.622-2.23-128.23,65.229-142.48,123.187
	c-3.03,12.329,13.845,16.152,18.465,5.092c12.261-29.352,26.803-54.812,50.929-76.204c22.88-20.288,49.262-28.401,75.868-41.811
	C839.837,146.947,837.092,139.443,831.941,139.261z"/>
<path style="fill:#FED178;" d="M736.436,695.427c-3.895-3.038-7.837-5.666-11.245-9.313c-6.879-7.362-9.669-16.215-14.243-24.908
	c-3.232-6.139-12.721-3.123-12.759,3.459c-0.062,11.931,7.027,23.412,14.571,32.185c3.772,4.386,8.298,8.636,13.228,11.708
	c5.391,3.357,9.024,3.197,14.374,0.472c1.448-0.734,1.932-2.509,1.621-3.988C741.035,700.536,740.251,698.408,736.436,695.427z"/>
<path style="fill:#E86B10;" d="M889.099,811.115c-24.985,0-45.239,20.254-45.239,45.237c0,24.987,20.254,45.242,45.239,45.242
	c24.988,0,45.242-20.255,45.242-45.242C934.341,831.369,914.087,811.115,889.099,811.115z"/>
<path style="fill:#E86B10;" d="M865.11,367.44c-0.034-31.872,2.361-65.866-3.348-97.255c-0.492-2.708-4.975-2.708-5.468,0
	c-5.365,29.579-3.186,61.565-3.297,91.577c-0.128,34.057-0.043,68.119-0.062,102.175c-0.04,67.699-4.159,136.83,0.247,204.352
	c0.498,7.635,11.379,7.652,11.874,0c4.378-67.527,0.228-136.648,0.154-204.352C865.175,431.77,865.141,399.607,865.11,367.44z"/>
<path style="fill:#E86B10;" d="M912.664,668.289c0.498,7.635,11.379,7.652,11.874,0c4.375-67.527,0.228-136.648,0.154-204.352
	c-0.034-32.167-0.069-64.33-0.102-96.497c-0.034-31.872,2.361-65.866-3.345-97.255c-0.489-2.708-4.978-2.708-5.468,0
	c-5.365,29.579-3.186,61.565-3.297,91.577c-0.128,34.057-0.043,68.119-0.063,102.175
	C912.377,531.636,908.258,600.767,912.664,668.289z"/>
<path style="fill:#FED178;" d="M807.22,2187.617c5.288-3.249,11.037-5.718,17.028-7.288c9.294-2.418,19.12-2.708,28.174-5.939
	c15.711-5.616,27.144-19.463,34.847-34.284c16.24-31.286,19.41-68.699,13.572-103.103h-73.905c-11.296,0-20.539,9.24-20.539,20.539
	v124.341C806.398,2183.868,806.688,2185.802,807.22,2187.617z"/>
<path style="fill:#E86B10;" d="M1036.21,2083.61c20.197,15.128,38.853,32.071,54.373,51.927
	c28.914,36.918,45.873,85.648,35.468,131.362c-11.948,52.49-57.338,91.656-106.46,113.714
	c-12.477,5.598-25.176,10.303-38.068,14.189c185.503-16.431,323.982-81.296,323.982-158.796
	C1305.505,2166.31,1193.589,2106.85,1036.21,2083.61z"/>
<path style="fill:#E86B10;" d="M778.657,2116.858c3.607-0.876,3.94-6.981,0-7.63c-42.494-7.032-91.781,7.459-130.979,22.945
	c-42.46,16.772-79.723,41.078-114.283,70.645c-6.989,5.98,3.237,16.289,10.136,10.138c33.954-30.268,74.192-54.066,116.862-69.797
	C699.367,2128.789,738.879,2126.576,778.657,2116.858z"/>
<path style="fill:#E86B10;" d="M843.084,2360.541c-47.541-8.136-94.347-10.679-140.964-24.732
	c-49.151-14.815-93.667-37.487-137.816-63.226c-5.61-3.271-10.212,4.984-5.021,8.591c40.969,28.464,87.545,49.344,135.006,64.41
	c45.894,14.571,99.03,28.163,147.571,23.992C846.622,2369.171,848.57,2361.479,843.084,2360.541z"/>
<g>
	<path style="fill:#E65C11;" d="M952.259,414.321v12.493c0,11.301,9.242,20.538,20.537,20.538h137.678v-53.568H972.796
		C961.501,393.783,952.259,403.025,952.259,414.321z"/>
	<path style="fill:#E65C11;" d="M952.259,508.339v12.493c0,11.301,9.242,20.538,20.537,20.538h137.678v-53.574H972.796
		C961.501,487.796,952.259,497.044,952.259,508.339z"/>
	<path style="fill:#E65C11;" d="M952.259,602.353v12.498c0,11.291,9.242,20.538,20.537,20.538h136.307
		c0.909-7.105,1.371-14.325,1.371-21.656v-31.917H972.796C961.501,581.815,952.259,591.057,952.259,602.353z"/>
	<path style="fill:#E65C11;" d="M972.796,299.764c-11.295,0-20.537,9.247-20.537,20.538v12.492c0,11.301,9.242,20.549,20.537,20.549
		h137.678v-53.579H972.796z"/>
</g>
<path style="fill:#E86B10;" d="M972.796,299.764c-11.295,0-20.537,9.247-20.537,20.538v12.492c0,11.301,9.242,20.549,20.537,20.549
	h69.953c-2.993-18.028-6.795-35.898-11.327-53.579H972.796z"/>
<path style="fill:#E86B10;" d="M972.796,393.783c-11.295,0-20.537,9.242-20.537,20.538v12.493c0,11.301,9.242,20.538,20.537,20.538
	h78.112c-0.084-17.881-1.024-35.767-2.788-53.568H972.796z"/>
<path style="fill:#E86B10;" d="M1049.66,487.796h-76.863c-11.295,0-20.537,9.247-20.537,20.543v12.493
	c0,11.301,9.242,20.538,20.537,20.538h70.53c0.152-0.872,0.315-1.727,0.452-2.6C1046.567,521.877,1048.514,504.863,1049.66,487.796z
	"/>
<path style="fill:#E86B10;" d="M972.796,581.815c-11.295,0-20.537,9.242-20.537,20.538v12.498c0,11.291,9.242,20.538,20.537,20.538
	h38.492c10.014-16.484,17.372-34.695,22.885-53.573H972.796z"/>
</svg>
