<svg xmlns="http://www.w3.org/2000/svg" xmlns:xlink="http://www.w3.org/1999/xlink" viewBox="0 0 92.88 139.03"><defs><style>.cls-1{fill:url(#Degradado_sin_nombre_7);}.cls-2{fill:url(#Degradado_sin_nombre_7-2);}.cls-3{fill:#fff;}.cls-4{font-size:24px;font-family:BubbleLao, Bubble Lao;}</style><linearGradient id="Degradado_sin_nombre_7" x1="296.17" y1="164.01" x2="191.97" y2="293.9" gradientUnits="userSpaceOnUse"><stop offset="0" stop-color="#fec030"/><stop offset="0.6" stop-color="#ec952a"/><stop offset="1" stop-color="#e27d27"/></linearGradient><linearGradient id="Degradado_sin_nombre_7-2" x1="263.19" y1="206.77" x2="199.24" y2="286.49" xlink:href="#Degradado_sin_nombre_7"/></defs><g id="OBJECTS"><path class="cls-1" d="M297.94,181V222.8a43.3,43.3,0,0,1-43.34,43.33H228.3a7.59,7.59,0,0,0-4.69,1.61l-6.16,4.76a7.68,7.68,0,0,1-12.39-6.08V216.6a43.29,43.29,0,0,1,43.33-43.34h41.86A7.69,7.69,0,0,1,297.94,181Z" transform="translate(-205.06 -173.26)"/><path class="cls-2" d="M293.63,241.66a43.36,43.36,0,0,1-39,24.47H228.3a7.59,7.59,0,0,0-4.69,1.61l-6.16,4.76a7.68,7.68,0,0,1-12.39-6.08V216.6a43.31,43.31,0,0,1,2.85-15.5h.65A109.24,109.24,0,0,1,293.63,241.66Z" transform="translate(-205.06 -173.26)"/><path class="cls-3" d="M278.15,211.5h-.5a3.57,3.57,0,0,0-3.57,3.57v4.25a3.55,3.55,0,0,0,2.27,3.32V228c0,12.64-9.9,23.34-22.53,23.72a23.26,23.26,0,0,1-23.94-23.23v-6a3.55,3.55,0,0,0,2-3.21v-4.25a3.57,3.57,0,0,0-3.57-3.57h-.51a3.57,3.57,0,0,0-3.57,3.57v4.25a3.55,3.55,0,0,0,2.52,3.4v5.79a26.37,26.37,0,0,0,24.78,26.29v1.88a1.56,1.56,0,0,0,1.55,1.55h0a1.56,1.56,0,0,0,1.56-1.55V254.8a26.37,26.37,0,0,0,24.78-26.29v-5.87a3.55,3.55,0,0,0,2.27-3.32v-4.25A3.57,3.57,0,0,0,278.15,211.5Z" transform="translate(-205.06 -173.26)"/><path class="cls-3" d="M235.81,204.79h6.47a1.56,1.56,0,0,1,0,3.12h-6.53v2.79h6.53a1.56,1.56,0,0,1,0,3.12h-6.53v2.79h6.53a1.56,1.56,0,1,1,0,3.12h-6.53v2.79h6.53a1.57,1.57,0,0,1,0,3.13h-6.53v3.2A17.24,17.24,0,0,0,253,246.1h0a17.24,17.24,0,0,0,17.25-17.24v-3.2h-6.53a1.57,1.57,0,0,1,0-3.13h6.53v-2.79h-6.53a1.56,1.56,0,0,1,0-3.12h6.53v-2.79h-6.53a1.56,1.56,0,1,1,0-3.12h6.53v-2.79h-6.53a1.56,1.56,0,0,1,0-3.12h6.47a4,4,0,1,0-1.94-7.64,4,4,0,0,0-3.13-6.53,3.93,3.93,0,0,0-1.67.38s0-.07,0-.1a4,4,0,0,0-4-4,4,4,0,0,0-2.53.92,4,4,0,0,0-7.82,0,3.94,3.94,0,0,0-2.52-.92,4,4,0,0,0-4,4s0,.06,0,.1a3.94,3.94,0,0,0-1.68-.38,4,4,0,0,0-4,4,3.94,3.94,0,0,0,.9,2.5,4,4,0,1,0-1.94,7.64Zm22.71,20v3.47a1.93,1.93,0,1,1-3.85,0v-3.47a1.93,1.93,0,0,1,3.85,0Zm-11.06,0a1.93,1.93,0,0,1,3.85,0v3.47a1.93,1.93,0,1,1-3.85,0ZM264,232.66a11,11,0,0,1-11,10.19h0a11,11,0,0,1-11-10.19Z" transform="translate(-205.06 -173.26)"/><text class="cls-4" transform="translate(0.5 122.33)">ORANS</text></g></svg>